<?xml version="1.0" encoding="UTF-8"?>
<svg id="Layer_1" data-name="Layer 1" xmlns="http://www.w3.org/2000/svg" xmlns:xlink="http://www.w3.org/1999/xlink" viewBox="0 0 1176 662">
  <defs>
    <style>
      .cls-1, .cls-2, .cls-3, .cls-4, .cls-5, .cls-6, .cls-7, .cls-8, .cls-9, .cls-10, .cls-11, .cls-12, .cls-13, .cls-14, .cls-15, .cls-16, .cls-17, .cls-18, .cls-19, .cls-20, .cls-21, .cls-22, .cls-23, .cls-24, .cls-25, .cls-26, .cls-27, .cls-28, .cls-29, .cls-30, .cls-31, .cls-32, .cls-33, .cls-34, .cls-35, .cls-36, .cls-37 {
        stroke-width: 2px;
      }

      .cls-1, .cls-5, .cls-9, .cls-11, .cls-13, .cls-16, .cls-17, .cls-21, .cls-23, .cls-24, .cls-29, .cls-32 {
        stroke-miterlimit: 10;
      }

      .cls-1, .cls-8, .cls-30 {
        stroke: #042750;
      }

      .cls-1, .cls-19, .cls-28, .cls-38, .cls-37 {
        fill: #e2e2e2;
      }

      .cls-2, .cls-3, .cls-4, .cls-6, .cls-7, .cls-8, .cls-10, .cls-12, .cls-14, .cls-15, .cls-18, .cls-19, .cls-20, .cls-22, .cls-25, .cls-26, .cls-27, .cls-28, .cls-30, .cls-31, .cls-33, .cls-34, .cls-35, .cls-36, .cls-37 {
        stroke-linejoin: round;
      }

      .cls-2, .cls-4, .cls-6, .cls-7, .cls-8, .cls-11, .cls-12, .cls-14, .cls-15, .cls-18, .cls-19, .cls-20, .cls-22, .cls-25, .cls-26, .cls-27, .cls-28, .cls-30, .cls-31, .cls-33, .cls-34, .cls-35, .cls-36, .cls-37 {
        stroke-linecap: round;
      }

      .cls-2, .cls-7, .cls-9, .cls-11, .cls-15, .cls-22, .cls-28, .cls-31, .cls-32 {
        stroke: #0d274d;
      }

      .cls-2, .cls-33, .cls-36 {
        fill: #0051af;
      }

      .cls-3 {
        fill: #efa53b;
      }

      .cls-3, .cls-16 {
        stroke: #13284c;
      }

      .cls-4, .cls-39, .cls-7, .cls-8, .cls-10, .cls-14, .cls-16, .cls-20, .cls-32 {
        fill: none;
      }

      .cls-4, .cls-35 {
        stroke: #0c2750;
      }

      .cls-40 {
        fill: #042750;
      }

      .cls-40, .cls-41, .cls-39, .cls-42, .cls-43, .cls-38, .cls-44, .cls-45 {
        stroke-width: 0px;
      }

      .cls-46 {
        clip-path: url(#clippath);
      }

      .cls-41, .cls-12, .cls-30 {
        fill: #fbab2c;
      }

      .cls-5 {
        fill: #182749;
      }

      .cls-5, .cls-13 {
        stroke: #182749;
      }

      .cls-6 {
        fill: #00bceb;
      }

      .cls-6, .cls-10, .cls-12, .cls-14, .cls-18, .cls-24, .cls-26, .cls-27, .cls-34, .cls-36, .cls-37 {
        stroke: #10264d;
      }

      .cls-9, .cls-11 {
        fill: #a8b2c0;
      }

      .cls-13, .cls-22, .cls-27, .cls-44 {
        fill: #fff;
      }

      .cls-15, .cls-42 {
        fill: #0d274d;
      }

      .cls-47 {
        clip-path: url(#clippath-1);
      }

      .cls-48 {
        clip-path: url(#clippath-3);
      }

      .cls-49 {
        clip-path: url(#clippath-2);
      }

      .cls-17 {
        fill: #f3f4f5;
      }

      .cls-17, .cls-21, .cls-23, .cls-29 {
        stroke: #002853;
      }

      .cls-18 {
        fill: #10264d;
      }

      .cls-19, .cls-20, .cls-33 {
        stroke: #002753;
      }

      .cls-21 {
        fill: orange;
      }

      .cls-43 {
        fill: #002753;
      }

      .cls-23 {
        fill: #58c033;
      }

      .cls-24 {
        fill: #df3122;
      }

      .cls-25 {
        fill: #0050b2;
        stroke: #052750;
      }

      .cls-26, .cls-31 {
        fill: #74bf4b;
      }

      .cls-29 {
        fill: #f50001;
      }

      .cls-34 {
        fill: #e3241b;
      }

      .cls-35 {
        fill: #0c2750;
      }

      .cls-45 {
        fill: #485d7c;
      }
    </style>
    <clipPath id="clippath">
      <path class="cls-39" d="M574.47,435.28c0,72.1-58.47,130.72-130.72,130.72s-130.72-58.47-130.72-130.72v-194.49h261.44v194.49Z"/>
    </clipPath>
    <clipPath id="clippath-1">
      <rect class="cls-39" x="743.97" y="426.34" width="200.54" height="183.73"/>
    </clipPath>
    <clipPath id="clippath-2">
      <rect class="cls-39" x="217.61" y="36.46" width="184.64" height="185.4"/>
    </clipPath>
    <clipPath id="clippath-3">
      <circle class="cls-39" cx="777.74" cy="216.71" r="131.78"/>
    </clipPath>
  </defs>
  <line class="cls-16" x1="263.51" y1="595.83" x2="147.03" y2="406.65"/>
  <circle class="cls-22" cx="279.87" cy="624.16" r="34.53"/>
  <circle class="cls-13" cx="74.47" cy="176.72" r="33.47"/>
  <path class="cls-21" d="M1034.48,148.85h-8.79c-.91,0-1.67-.3-2.42-.61-.76-.45-1.36-1.06-1.82-1.82s-.61-1.51-.61-2.42.3-1.67.76-2.42l4.24-7.12,4.54-7.57c.45-.76,1.06-1.36,1.82-1.67.76-.45,1.51-.61,2.42-.61s1.67,0,2.42.61,1.36,1.06,1.82,1.67l4.54,7.57,4.24,7.12c.45.76.76,1.51.76,2.42s0,1.67-.61,2.42c-.45.76-1.06,1.36-1.82,1.82s-1.51.61-2.42.61h-9.09,0Z"/>
  <path class="cls-25" d="M973.9,327.73c6.82,0,12.12-5.45,12.12-12.12s-5.45-12.12-12.12-12.12-12.12,5.45-12.12,12.12,5.45,12.12,12.12,12.12Z"/>
  <path class="cls-23" d="M536.3,264.27h-8.94c-.91,0-1.67-.3-2.42-.61s-1.36-1.06-1.82-1.82c-.45-.76-.61-1.51-.61-2.42s.3-1.67.76-2.42l4.24-7.12,4.54-7.57c.45-.76,1.06-1.36,1.82-1.67.76-.45,1.51-.61,2.42-.61s1.67.15,2.42.61,1.36,1.06,1.82,1.67l4.54,7.57,4.24,7.12c.45.76.76,1.51.76,2.42s-.15,1.67-.61,2.42-1.06,1.36-1.82,1.82-1.51.61-2.42.61h-8.94Z"/>
  <circle class="cls-7" cx="443.76" cy="435.28" r="130.72"/>
  <circle class="cls-5" cx="92.35" cy="176.42" r="3.33"/>
  <circle class="cls-5" cx="74.17" cy="188.69" r="3.33"/>
  <circle class="cls-5" cx="68.11" cy="164.3" r="3.33"/>
  <line class="cls-10" x1="76.9" y1="187.02" x2="89.47" y2="178.23"/>
  <line class="cls-10" x1="41.76" y1="183.08" x2="65.69" y2="166.57"/>
  <line class="cls-10" x1="69.02" y1="167.48" x2="72.96" y2="185.51"/>
  <g class="cls-46">
    <g>
      <path class="cls-15" d="M514.49,279.26c8.79,2.73,15.75,11.36,15.45,20.6h0c-.3,6.82-3.94,13.03-9.69,16.66l-6.51,3.94-8.63-37.87,10.45-3.03"/>
      <path class="cls-15" d="M516.01,411.8c7.57-13.03,8.33-33.02,1.82-46.65l-15-2.12-23.78,15.15-.76,29.23,37.56,4.24h.15v.15Z"/>
      <path class="cls-9" d="M447.54,377.87l-5-20.75c-5.45-23.17,7.42-46.65,29.99-54.38l35.29-12.12c8.18,5.45,13.63,14.69,14.09,25.14l1.21,30.45c.76,17.57-13.03,32.41-30.6,33.17l-2.27,14.54h-52.56c0,.15,9.85-16.06,9.85-16.06"/>
      <path class="cls-2" d="M349.54,576.3c-25.14,0-43.02-24.69-34.99-48.62l45.59-109.36c5.3-15.75,19.69-25.9,37.11-25.9l117.24-.61c7.12,0,13.94,2.27,19.84,6.21,9.39,6.36,15.3,16.66,16.81,27.87l18.63,150.41h-220.24,0Z"/>
      <path class="cls-7" d="M351.97,524.04h60.13c6.97,0,17.12.45,24.08.91"/>
      <polyline class="cls-22" points="412.1 442.4 405.59 458.3 378.62 524.04"/>
      <path class="cls-7" d="M351.97,576.3l81.49-11.21-1.97-5.45c-.3-1.67-1.67-3.03-1.51-4.7l1.82-7.72"/>
      <path class="cls-9" d="M451.48,526.31l52.26,5.91c3.64.45,6.97,1.97,9.54,4.39l18.63,17.12c1.67,1.51,1.82,4.24.3,5.91h0c-1.36,1.51-3.48,1.82-5.3.76l-2.73-1.67"/>
      <path class="cls-9" d="M431.64,547.52l24.24,5.3c6.36,1.51,13.18,1.06,19.39-1.21l18.18-6.82,23.93,16.51c1.51,1.06,4.39,1.06,5.76,0,0,0,.15-.3.3-.3,1.51-1.67,1.36-4.39-.45-5.91l-22.11-19.24c-1.97-1.67-4.24-2.73-6.82-2.88l-21.96-3.79c-12.12-2.12-23.48-3.48-35.75-4.24l-4.54,22.72h-.15v-.15h0Z"/>
      <polygon class="cls-42" points="407.71 453.3 391.65 524.04 378.62 524.04 407.71 453.3"/>
      <path class="cls-15" d="M433.3,564.93h0c1.06,0,2.12-.76,2.57-1.67l.91-2.27,3.48-11.66-8.63-1.67-1.67,7.27v3.18l.61,4.54c.15,1.36,1.36,2.42,2.73,2.42h0v-.15Z"/>
      <path class="cls-15" d="M420.58,415.89c15.3,1.21,30.9-13.78,36.5-28.02.15-.45.3-.91.45-1.36,5.3-15.3-1.06-29.99-.91-46.2l6.21-18.93s35.6-9.85,51.5-42.26h0s-18.02-2.27-24.39-2.73l-27.72-2.12c-2.73-.15-5.3,0-8.03.45-12.12,2.42-21.66,11.97-27.72,22.42-3.33,5.6-5.6,11.81-6.66,18.18-1.36,7.27-1.51,14.84-5.15,21.51-4.85,8.94-14.24,16.06-21.81,23.78,0,0-.3.3-.3.45-18.78,19.54-10.91,54.83,27.87,54.68"/>
      <path class="cls-11" d="M460.42,340.16c-6.06.3-11.06-4.54-11.06-10.75s4.39-10.15,9.85-10.45c2.73-.15,5.45.76,7.42,2.27"/>
      <path class="cls-28" d="M513.73,568.42h-88.15c-2.12,0-3.79,1.67-3.79,3.79h0c0,2.12,1.67,3.79,3.79,3.79h224.02v-5.76"/>
      <path class="cls-28" d="M668.08,576.14h-151.32c-1.82,0-3.18-1.51-2.88-3.33l15.3-114.51c0-.91.91-1.51,1.82-1.51h154.95c.91,0,1.51.76,1.36,1.51l-15.3,114.51c-.3,1.82-1.97,3.33-3.94,3.33Z"/>
      <circle class="cls-12" cx="454.51" cy="346.06" r="11.81"/>
    </g>
  </g>
  <path class="cls-7" d="M522.52,330.92c31.66,23.78,51.95,61.65,51.95,104.36,0,72.1-58.47,130.72-130.72,130.72s-130.72-58.47-130.72-130.72,58.47-130.72,130.72-130.72,6.97,0,10.45.45"/>
  <path class="cls-39" d="M909.52,216.71c0,72.86-59.07,131.78-131.78,131.78s-131.78-59.07-131.78-131.78V14.95h263.71v201.91h0l-.15-.15Z"/>
  <line class="cls-16" x1="398.32" y1="138.1" x2="646.27" y2="209.89"/>
  <line class="cls-16" x1="675.5" y1="300.47" x2="565.99" y2="389.08"/>
  <line class="cls-16" x1="570.23" y1="468.15" x2="792.89" y2="521.16"/>
  <line class="cls-7" x1="273.66" y1="639.91" x2="286.08" y2="639.91"/>
  <line class="cls-7" x1="275.47" y1="645.82" x2="284.26" y2="645.82"/>
  <line class="cls-16" x1="309.1" y1="605.53" x2="384.38" y2="551.76"/>
  <line class="cls-16" x1="160.51" y1="390.9" x2="312.58" y2="424.98"/>
  <line class="cls-16" x1="222.46" y1="133.55" x2="107.95" y2="171.12"/>
  <line class="cls-16" x1="301.68" y1="221.25" x2="361.21" y2="334.1"/>
  <line class="cls-7" x1="1083.86" y1="440.12" x2="913.31" y2="553.27"/>
  <rect class="cls-27" x="464.73" y="151.76" width="15.6" height="15.6" transform="translate(-18.27 248.23) rotate(-28.9)"/>
  <line class="cls-14" x1="912.1" y1="88.26" x2="873.17" y2="125.07"/>
  <circle class="cls-31" cx="156.27" cy="155.36" r="6.51"/>
  <rect class="cls-37" x="326.85" y="272.92" width="9.69" height="9.69" transform="translate(-32.55 511.22) rotate(-72.6)"/>
  <circle class="cls-34" cx="622.49" cy="342.88" r="6.06"/>
  <rect class="cls-36" x="607.16" y="192.54" width="15.6" height="15.6" transform="translate(-18.25 332.11) rotate(-29.8)"/>
  <rect class="cls-12" x="1008.17" y="481.66" width="10.45" height="10.45" transform="translate(356.34 1399.2) rotate(-79.9)"/>
  <circle class="cls-26" cx="677.02" cy="494.35" r="6.06"/>
  <circle class="cls-6" cx="343.79" cy="579.17" r="6.06"/>
  <ellipse class="cls-22" cx="134.76" cy="382.57" rx="26.96" ry="27.26"/>
  <path class="cls-6" d="M144.15,395.14l-9.39,3.48-9.39-3.48c-2.42-.91-4.09-3.18-4.09-5.6v-20.9h27.11v20.9c0,2.42-1.67,4.7-4.09,5.6h-.15Z"/>
  <circle class="cls-22" cx="931.49" cy="64.18" r="30.29"/>
  <line class="cls-7" x1="928.61" y1="68.42" x2="913.31" y2="76.14"/>
  <line class="cls-7" x1="933.76" y1="68.42" x2="949.21" y2="76.14"/>
  <polygon class="cls-22" points="931.18 49.64 913.31 59.18 920.73 63.72 921.03 63.88 928.61 68.42 931.18 70.09 933.76 68.42 934.82 67.81 936.03 67.06 938.3 65.84 947.09 60.39 949.21 59.18 931.18 49.64"/>
  <polyline class="cls-22" points="913.31 59.18 913.31 76.14 949.21 76.14 949.21 59.18"/>
  <circle class="cls-13" cx="1108.7" cy="423.16" r="30.29"/>
  <g>
    <path class="cls-1" d="M1122.49,406.04c.61.45.61,1.36,0,1.97-1.36,1.97-1.51,4.54-.3,6.82s3.48,3.48,5.76,3.03c.76,0,1.36.45,1.51,1.21.45,2.57.45,5.3,0,8.18,0,.61-.76,1.21-1.51,1.21-2.27-.15-4.54.91-5.76,3.03-1.21,2.27-.91,4.85.3,6.82.45.61.3,1.51,0,1.97-1.97,1.82-4.39,3.18-6.66,4.09-.61.3-1.36,0-1.67-.76-.91-2.12-3.03-3.79-5.45-3.79s-4.54,1.51-5.45,3.79c-.3.61-1.06.91-1.67.76-1.21-.45-2.27-.91-3.48-1.67-1.06-.61-2.12-1.51-3.03-2.27-.61-.45-.61-1.36,0-1.97,1.36-1.97,1.51-4.54.3-6.82s-3.48-3.48-5.76-3.03c-.76,0-1.36-.45-1.51-1.21-.45-2.57-.45-5.3,0-8.18,0-.61.76-1.21,1.51-1.21,2.27.15,4.54-.91,5.76-3.03,1.21-2.27.91-4.85-.3-6.82-.45-.61-.3-1.51,0-1.97,1.97-1.82,4.39-3.18,6.66-4.09.61-.3,1.36,0,1.67.76.91,2.12,3.03,3.79,5.45,3.79s4.54-1.51,5.45-3.79c.3-.61,1.06-.91,1.67-.76,1.21.45,2.27.91,3.48,1.67,1.06.61,2.12,1.51,3.03,2.27Z"/>
    <circle class="cls-22" cx="1108.7" cy="423.16" r="6.06"/>
  </g>
  <path class="cls-29" d="M119.61,618.71c6.66,0,12.12-5.45,12.12-12.12s-5.45-12.12-12.12-12.12-12.12,5.45-12.12,12.12,5.45,12.12,12.12,12.12Z"/>
  <line class="cls-7" x1="928.61" y1="68.42" x2="913.31" y2="76.14"/>
  <line class="cls-7" x1="933.76" y1="68.42" x2="949.21" y2="76.14"/>
  <polyline class="cls-7" points="913.31 59.18 920.73 63.72 921.03 63.88 928.61 68.42 931.18 70.09 933.76 68.42 934.82 67.81 936.03 67.06 938.3 65.84 947.09 60.39 949.21 59.18"/>
  <polygon class="cls-28" points="943.45 62.66 931.18 70.09 919.22 62.82 919.22 46.15 943.45 46.15 943.45 62.66"/>
  <line class="cls-7" x1="925.28" y1="52.52" x2="937.7" y2="52.52"/>
  <line class="cls-7" x1="925.28" y1="58.27" x2="937.7" y2="58.27"/>
  <rect class="cls-17" x="193.83" y="274.87" width="24.24" height="24.24" rx="6.06" ry="6.06"/>
  <rect class="cls-37" x="609.31" y="58.12" width="24.24" height="24.24" rx="6.06" ry="6.06"/>
  <path class="cls-7" d="M843.94,610.68h-80.73c-9.85,0-16.06-10.75-11.06-19.24l40.29-69.98,40.29-69.98c5-8.48,17.27-8.48,22.27,0l40.29,69.98,40.29,69.98c5,8.48-1.21,19.24-11.06,19.24h-80.73.15Z"/>
  <path class="cls-7" d="M880.29,495.26l15.15,26.2,40.29,69.98c5,8.48-1.21,19.24-11.06,19.24h-161.47c-9.85,0-16.06-10.75-11.06-19.24l11.36-19.84"/>
  <path class="cls-3" d="M273.66,633.7c0-5-4.39-9.39-4.39-9.39-5.76-5.76-5.76-15.3,0-21.05,2.88-2.88,6.66-4.39,10.6-4.39s7.57,1.51,10.6,4.39c5.76,5.76,5.76,15.3,0,21.05,0,0-4.39,4.39-4.39,9.39h-12.42Z"/>
  <g class="cls-47">
    <g>
      <rect class="cls-42" x="795.19" y="451.59" width="3.48" height="20.3" transform="translate(-120.99 537.4) rotate(-34.8)"/>
      <g>
        <line class="cls-7" x1="766.08" y1="567.06" x2="920.58" y2="567.06"/>
        <g>
          <polygon class="cls-38" points="848.94 465.27 824.4 499.95 869.53 545.7 866.81 508.13 848.94 465.27"/>
          <polyline class="cls-44" points="837.88 559.33 869.08 682.93 883.77 681.57 867.57 559.33"/>
          <polyline class="cls-33" points="837.88 559.33 869.08 682.93 883.77 681.57 867.57 559.33"/>
          <polyline class="cls-44" points="852.72 574.17 817.58 680.81 802.89 677.48 823.03 559.33"/>
          <polyline class="cls-33" points="852.72 574.17 817.58 680.81 802.89 677.48 823.03 559.33"/>
          <path class="cls-44" d="M808.19,476.63c-1.82-2.73-3.79-5.3-6.21-7.72-1.67-1.67-3.64-3.33-5.91-3.94-.76-.3-1.67-.45-2.57-.15s-1.67.76-1.82,1.67c0,.76,0,1.67.3,2.42,1.82,4.85,5.3,10.45,10,16.36"/>
          <path class="cls-20" d="M808.19,476.63c-1.82-2.73-3.79-5.3-6.21-7.72-1.67-1.67-3.64-3.33-5.91-3.94-.76-.3-1.67-.45-2.57-.15s-1.67.76-1.82,1.67c0,.76,0,1.67.3,2.42,1.82,4.85,5.3,10.45,10,16.36"/>
          <path class="cls-38" d="M867.87,526.01l3.03,10.91c2.42,8.79,4.39,17.57,5.91,26.51l4.85,25.6h-73.46l29.69-89.06"/>
          <path class="cls-20" d="M867.87,526.01l3.03,10.91c2.42,8.79,4.39,17.57,5.91,26.51l4.85,25.6h-73.46l29.69-89.06"/>
          <path class="cls-44" d="M845.91,468.45c2.57-3.64,6.82-6.06,11.66-6.06,7.57,0,13.78,5.91,14.24,13.63l-3.79,50.14"/>
          <path class="cls-19" d="M845.91,468.45c2.57-3.64,6.82-6.06,11.66-6.06,7.57,0,13.78,5.91,14.24,13.63l-3.79,50.14"/>
          <path class="cls-44" d="M828.94,493.9l-19.24-22.72-13.33,10.45,24.99,35.29h0c1.97,2.57,5.15,4.24,8.63,4.09,3.33-.15,6.21-1.97,7.88-4.54h0l14.39-21.66M845.91,468.45l-16.81,25.45"/>
          <path class="cls-19" d="M828.94,493.9l-19.24-22.72-13.33,10.45,24.99,35.29h0c1.97,2.57,5.15,4.24,8.63,4.09,3.33-.15,6.21-1.97,7.88-4.54h0l14.39-21.66M845.91,468.45l-16.81,25.45"/>
          <path class="cls-44" d="M858.93,452.7c-1.82,5.15-3.48,13.03-3.64,18.48v2.42c.61,4.24,3.79,7.72,7.88,8.94l2.57.76c8.79,2.42,16.96-6.36,13.18-14.69h0c-1.51-3.48-3.64-6.82-4.24-10.3-.3-2.57.45-5,.91-7.42.3-2.12.3-4.39,0-6.51-.76-3.94-2.57-8.18-6.21-10.3-.76-.45-1.67-.91-2.42-1.06l-9.09-2.57c-5.3-1.51-10.6,1.51-12.12,6.82l-2.57,9.09c-1.51,5.3,1.51,10.6,6.82,12.12l6.66,1.36"/>
          <path class="cls-20" d="M858.93,452.7c-1.82,5.15-3.48,13.03-3.64,18.48v2.42c.61,4.24,3.79,7.72,7.88,8.94l2.57.76c8.79,2.42,16.96-6.36,13.18-14.69h0c-1.51-3.48-3.64-6.82-4.24-10.3-.3-2.57.45-5,.91-7.42.3-2.12.3-4.39,0-6.51-.76-3.94-2.57-8.18-6.21-10.3-.76-.45-1.67-.91-2.42-1.06l-9.09-2.57c-5.3-1.51-10.6,1.51-12.12,6.82l-2.57,9.09c-1.51,5.3,1.51,10.6,6.82,12.12l6.66,1.36"/>
          <path class="cls-44" d="M848.94,434.07c.76,5.6,5.91,17.57,8.48,20.15"/>
          <path class="cls-20" d="M848.94,434.07c.76,5.6,5.91,17.57,8.48,20.15"/>
          <path class="cls-40" d="M871.81,589.02c-9.09,9.24-23.17,15.6-23.17,15.6l-2.27-9.54,2.12-6.06h23.33,0Z"/>
        </g>
      </g>
    </g>
  </g>
  <g class="cls-49">
    <g>
      <line class="cls-7" x1="222.61" y1="179.3" x2="398.32" y2="179.3"/>
      <g>
        <path class="cls-41" d="M315.76,113.41c-.91-2.42-2.42-4.54-4.7-6.06-.45-.91-1.06-1.82-1.67-2.57-1.36-5.15-5.6-9.39-12.42-9.39-13.03,0-16.36,15-9.85,22.72.76,3.03,2.57,5.6,5.15,7.42.76,1.36,1.67,2.73,2.88,3.79,1.67,4.7,5.76,8.33,12.12,8.33,13.78,0,16.66-17.12,8.48-24.08h0v-.15h0Z"/>
        <path class="cls-8" d="M388.92,318.65l-37.26,11.36.76,2.42c.91,3.03,4.24,4.7,7.27,3.79l26.66-8.33c3.03-.91,4.7-4.24,3.79-7.27-.3-.76-.61-1.36-1.06-1.97h-.15Z"/>
        <path class="cls-43" d="M361.66,310.01l-15.15,3.48,5.15,16.51,37.26-11.36c-.61-.76-3.94-1.51-6.66-1.97-3.33-.61-6.66-1.51-9.85-2.73l-10.75-3.94h0Z"/>
        <path class="cls-20" d="M361.66,310.01l-15.15,3.48,5.15,16.51,37.26-11.36c-.61-.76-3.94-1.51-6.66-1.97-3.33-.61-6.66-1.51-9.85-2.73l-10.75-3.94"/>
        <path class="cls-8" d="M301.22,331.37l-41.81-.45-.61,2.57c-.76,3.18,1.21,5.76,4.39,5.76h30.9c3.18,0,6.36-2.42,7.12-5.6.15-.76.15-1.51,0-2.27h0Z"/>
        <path class="cls-43" d="M278.65,314.86l-15.15-1.36-3.94,17.27,41.81.45c-.15-.91-2.73-2.57-5-3.94-.61-.3-1.36-.76-2.27-1.21-5.6-3.03-10.75-6.82-15.45-11.21"/>
        <path class="cls-20" d="M278.65,314.86l-15.15-1.36-3.94,17.27,41.81.45c-.15-.91-2.73-2.57-5-3.94-.61-.3-1.36-.76-2.27-1.21-5.6-3.03-10.75-6.82-15.45-11.21"/>
        <rect class="cls-42" x="341.04" y="78.39" width="20.3" height="3.48" transform="translate(84.96 322.78) rotate(-55.2)"/>
        <polygon class="cls-44" points="280.47 316.83 256.54 316.83 279.87 152.49 316.67 152.49 280.47 316.83"/>
        <polygon class="cls-8" points="280.47 316.83 256.54 316.83 279.87 152.49 316.67 152.49 280.47 316.83"/>
        <polyline class="cls-44" points="281.68 152.49 316.52 152.49 361.66 310.16 340.3 316.83 287.59 182.02"/>
        <polyline class="cls-8" points="281.68 152.49 316.52 152.49 361.66 310.16 340.3 316.83 287.59 182.02"/>
        <path class="cls-44" d="M315.46,146.43l1.36,6.06h-34.53c-4.24,0-7.57-3.48-7.42-7.72l1.36-44.23c.3-7.88,6.82-14.09,14.69-14.09s9.39,2.42,11.97,6.21"/>
        <path class="cls-30" d="M315.46,146.43l1.36,6.06h-34.53c-4.24,0-7.57-3.48-7.42-7.72l1.36-44.23c.3-7.88,6.82-14.09,14.69-14.09s9.39,2.42,11.97,6.21"/>
        <path class="cls-30" d="M320.16,119.31l-17.42-26.36M296.07,120.22l14.84,22.42c1.82,2.73,4.7,4.54,8.18,4.7,3.64,0,6.97-1.51,8.94-4.39h0l21.21-40.9-9.24-6.36-19.84,23.48"/>
        <path class="cls-45" d="M356.81,87.66l-7.42,14.39-9.24-6.36c1.82-2.88,3.94-5.6,6.36-7.88,1.82-1.82,3.79-3.48,6.06-4.09.91-.3,1.82-.45,2.57,0,.91,0,1.67.76,1.97,1.67s0,1.67-.45,2.57"/>
        <path class="cls-8" d="M356.81,87.66l-7.42,14.39-9.24-6.36c1.82-2.88,3.94-5.6,6.36-7.88,1.82-1.82,3.79-3.48,6.06-4.09.91-.3,1.82-.45,2.57,0,.91,0,1.67.76,1.97,1.67s0,1.67-.45,2.57h.15s0-.3,0-.3Z"/>
        <polygon class="cls-40" points="287.29 183.23 298.5 234.73 301.98 218.98 287.29 183.23"/>
        <path class="cls-44" d="M305.01,59.48c-.91,3.64-3.64,7.42-6.21,10-2.57,2.57-5.45,4.7-8.79,6.36l-11.36,6.36c-1.82-2.12-2.88-4.85-2.57-7.88l.45-5.76c.45-4.24,2.73-8.33,6.36-10.45,1.21-.76,2.42-1.21,3.64-1.51.91,0,1.82-.3,2.73,0l9.69.76c2.12,0,4.24,1.06,5.76,2.42"/>
        <path class="cls-35" d="M305.01,59.48c-.91,3.64-3.64,7.42-6.21,10-2.57,2.57-5.45,4.7-8.79,6.36l-11.36,6.36c-1.82-2.12-2.88-4.85-2.57-7.88l.45-5.76c.45-4.24,2.73-8.33,6.36-10.45,1.21-.76,2.42-1.21,3.64-1.51.91,0,1.82-.3,2.73,0l9.69.76c2.12,0,4.24,1.06,5.76,2.42h.3v-.3h0Z"/>
        <path class="cls-45" d="M308.65,68.12l-.76,9.69c-.45,5.6-5.3,9.85-10.91,9.39l-6.97-1.06-4.39-.45c-2.73-.3-5-1.51-6.66-3.48l11.36-6.36c3.18-1.67,6.21-3.79,8.79-6.36,2.42-2.42,5.15-6.36,6.21-10,2.42,1.97,3.94,5.15,3.64,8.63"/>
        <path class="cls-4" d="M308.65,68.12l-.76,9.69c-.45,5.6-5.3,9.85-10.91,9.39l-6.97-1.06-4.39-.45c-2.73-.3-5-1.51-6.66-3.48l11.36-6.36c3.18-1.67,6.21-3.79,8.79-6.36,2.42-2.42,5.15-6.36,6.21-10,2.42,1.97,3.94,5.15,3.64,8.63h-.3Z"/>
        <line class="cls-7" x1="305.01" y1="59.48" x2="305.01" y2="59.48"/>
      </g>
    </g>
  </g>
  <path class="cls-7" d="M228.97,41h163.28c3.64,0,6.51,4.39,6.51,8.03v166.31c0,3.64-2.88,6.51-6.51,6.51h-163.28c-3.64,0-6.51-2.88-6.51-6.51V49.03c0-3.64,2.88-8.03,6.51-8.03h0Z"/>
  <path class="cls-28" d="M948.6,587.05v-5.6c0-1.97-1.82-3.79-4.24-3.79h-26.81c-2.27,0-4.24,1.67-4.24,3.79v48.47c0,1.97,1.82,3.79,4.24,3.79h64.22c2.27,0,4.24-1.67,4.24-3.79v-39.08c0-1.97-1.82-3.79-4.24-3.79h-33.17Z"/>
  <path class="cls-23" d="M981.47,633.7h-64.07c-2.27,0-4.24-1.67-4.24-3.79v-33.63c0-1.97,1.82-3.79,4.24-3.79h63.92c2.27,0,4.24,1.67,4.24,3.94h0v33.17c0,2.12-1.82,3.94-4.24,3.94h0l.15.15Z"/>
  <path class="cls-27" d="M389.53,3.89h102.54c5.15,0,9.39,4.09,9.39,9.24v66.19c0,5-4.24,9.24-9.39,9.24h-102.54c-5.15,0-9.39-4.09-9.39-9.24V13.13c0-5,4.24-9.24,9.39-9.24h0Z"/>
  <path class="cls-18" d="M380.14,22.68v-9.54c0-5.15,4.24-9.24,9.39-9.24h102.54c5.3,0,9.39,4.09,9.39,9.24h0v9.54h-121.48.15,0Z"/>
  <circle class="cls-24" cx="389.98" cy="13.29" r="3.79"/>
  <g>
    <path class="cls-6" d="M440.73,29.34h0c13.33,0,24.24,10.91,24.24,24.24h0c0,13.33-10.91,24.24-24.24,24.24h0c-13.33,0-24.24-10.91-24.24-24.24h0c0-13.33,10.91-24.24,24.24-24.24Z"/>
    <polyline class="cls-14" points="454.06 45.4 436.03 63.57 427.55 54.94"/>
  </g>
  <g>
    <g class="cls-48">
      <g>
        <path class="cls-15" d="M717.61,183.23v-4.39c0-20.9,16.96-38.02,38.02-38.02h58.77c20.9,0,38.02,16.96,38.02,38.02v4.39"/>
        <path class="cls-6" d="M820,177.33h17.87c21.36,0,40.59,13.03,48.92,32.72l42.56,101.48c8.03,23.63-9.69,48.17-34.69,48.17h-240.38l21.96-137.99c4.09-25.9,26.51-44.83,52.56-44.83h0l91.18.3h0v.15Z"/>
        <path class="cls-44" d="M806.68,306.83c-19.09,1.21-13.94.76-33.63,4.09l-21.81,3.79c-2.42.15-4.85,1.21-6.82,2.88l-21.96,19.09c-1.82,1.51-1.97,4.09-.45,5.91,0,0,0,.3.3.3,1.36,1.06,4.09,1.06,5.6,0l23.78-16.36,18.02,6.66c6.06,2.27,12.72,2.73,19.09,1.21l20.6-4.7"/>
        <path class="cls-6" d="M821.22,230.64c7.57,53.17,20.3,66.65,20.3,66.65"/>
        <path class="cls-7" d="M700.34,214.44c-1.67,2.12-11.51,23.63-14.39,49.53"/>
        <path class="cls-7" d="M728.82,185.05v3.94c0,17.27,5.15,34.08,14.69,48.47l.45.76"/>
        <path class="cls-7" d="M812.43,192.62l-4.24,5.6c-12.27,16.36-20.6,35.14-24.69,55.13l-1.51,7.57"/>
        <path class="cls-42" d="M821.52,235.49l9.09,66.04,12.12-4.09c-11.97-10.6-21.21-61.8-21.21-61.8h0v-.15Z"/>
        <path class="cls-22" d="M787.14,308.8l-45.59,5.15c-3.48.45-6.97,1.97-9.54,4.39l-18.48,16.96c-1.67,1.51-1.82,4.24-.3,5.91h0c1.36,1.51,3.48,1.82,5.15.76l2.73-1.67"/>
        <path class="cls-22" d="M819.55,305.62c-11.51.76-34.99,3.33-46.35,5.3l-21.81,3.79c-2.42.15-4.85,1.21-6.82,2.88l-21.96,19.09c-1.82,1.51-1.97,4.09-.45,5.91,0,0,0,.3.3.3,1.36,1.06,4.09,1.06,5.6,0l23.78-16.36,22.72,9.85c6.06,2.27,12.72,2.73,19.09,1.21l20.6-4.7"/>
        <path class="cls-6" d="M895.44,359.69l-81.49-8.63c-5.15-.61-9.24-4.39-10-9.39l-4.85-29.08c-1.06-6.21,3.18-12.12,9.39-13.18,18.78-3.18,57.86-8.94,88.61-8.94"/>
        <path class="cls-28" d="M729.43,352.12h88c2.12,0,3.79,1.67,3.79,3.79h0c0,2.12-1.67,3.79-3.79,3.79h-223.72"/>
        <g>
          <path class="cls-28" d="M575.23,359.69h151.17c1.82,0,3.18-1.51,2.88-3.33l-15.3-114.36c0-.91-.91-1.51-1.82-1.51h-154.8c-.91,0-1.51.76-1.36,1.51l15.3,114.36c.3,1.82,1.97,3.33,3.94,3.33h0Z"/>
          <path class="cls-28" d="M568.41,359.69h151.17c1.82,0,3.18-1.51,2.88-3.33l-15.3-114.36c0-.91-.91-1.51-1.82-1.51h-154.8c-.91,0-1.51.76-1.36,1.51l15.3,114.36c.3,1.82,1.97,3.33,3.94,3.33h0Z"/>
        </g>
      </g>
    </g>
    <circle class="cls-32" cx="777.74" cy="216.71" r="131.78"/>
  </g>
  <g>
    <path class="cls-22" d="M805.46,156.12l6.36-22.72c6.66-23.93-6.82-48.92-30.45-56.5l-41.05-13.18c-8.48,5-10.15,17.72-11.21,28.32l-4.24,26.81c-1.82,17.57,5.91,36.81,23.48,38.62l-6.82,20.75h.3c20.9,9.24,44.68,9.54,65.74.76h.3l-2.27-22.87"/>
    <path class="cls-22" d="M731.85,75.99s11.51,3.03,18.18,3.64c14.84,1.21,25.3-1.06,31.05-1.51l-1.21,38.62,9.24-5.45,10.45,15.45c-11.21,12.42,6.66,29.69,6.66,29.69,0,0,6.06-22.42,11.51-33.02,4.7-9.09,11.06-24.24,6.06-39.84-5.76-18.02-16.36-22.72-25.6-25.14-11.21-2.88-39.99-3.94-51.95.91-11.81,4.85-14.39,16.81-14.39,16.81h0v-.15Z"/>
    <path class="cls-22" d="M787.59,112.19c2.88-1.97,6.97-3.33,10.45-2.73,4.09.76,6.97,4.85,7.42,8.94.76,6.97-5.15,12.42-11.66,11.66"/>
  </g>
</svg>